ply
format ascii 1.0
comment VCGLIB generated
element vertex 35
property float x
property float y
property float z
property float nx
property float ny
property float nz
property uchar red
property uchar green
property uchar blue
property uchar alpha
property float texture_u
property float texture_v
element face 78
property list uchar int vertex_indices
end_header
-1.87375 -1.875 -1.499375 1 0 0 255 255 255 255 0.5 0.5
-1.87625 -1.875 -1.499375 -1 0 0 255 255 255 255 0.5 0.5
-1.875 -1.87375 -1.499375 -4.091662e-06 0.9875029 -0.157601 255 255 255 255 0.5 0.5
-1.875 -1.87625 -1.499375 -4.091662e-06 -0.9875029 0.157601 255 255 255 255 0.5 0.5
-1.875 -1.875 -1.498125 -4.091573e-06 0.1575939 0.987504 255 255 255 255 0.5 0.5
-1.875 -1.875 -1.500625 -4.091573e-06 -0.1575939 -0.987504 255 255 255 255 0.5 0.5
1.87625 -1.875 -1.499375 0.987508 0 -0.1575688 255 255 255 255 0.5 0.5
1.87375 -1.875 -1.499375 -0.987508 0 0.1575688 255 255 255 255 0.5 0.5
1.875 -1.87375 -1.499375 0 0.9875021 0.1576058 255 255 255 255 0.5 0.5
1.875 -1.87625 -1.499375 0 -0.9875021 -0.1576058 255 255 255 255 0.5 0.5
1.875 -1.875 -1.498125 0.1066993 -0.1066891 0.9885508 255 255 255 255 0.5 0.5
1.875 -1.875 -1.500625 -0.1066993 0.1066891 -0.9885508 255 255 255 255 0.5 0.5
1.87625 1.875 -1.499375 0.9875072 0 0.1575739 255 255 255 255 0.5 0.5
1.87375 1.875 -1.499375 -0.9875072 0 -0.1575739 255 255 255 255 0.5 0.5
1.875 1.87625 -1.499375 0 0.9875072 -0.1575739 255 255 255 255 0.5 0.5
1.875 1.87375 -1.499375 0 -0.9875072 0.1575739 255 255 255 255 0.5 0.5
1.875 1.875 -1.498125 -0.1067047 0.1067047 0.9885486 255 255 255 255 0.5 0.5
1.875 1.875 -1.500625 0.1067047 -0.1067047 -0.9885486 255 255 255 255 0.5 0.5
-1.87375 1.875 -1.499375 0.9875021 0 -0.1576058 255 255 255 255 0.5 0.5
-1.87625 1.875 -1.499375 -0.9875028 0 0.1576018 255 255 255 255 0.5 0.5
-1.875 1.87625 -1.499375 -4.091225e-06 0.987508 0.1575691 255 255 255 255 0.5 0.5
-1.875 1.87375 -1.499375 -4.091225e-06 -0.987508 -0.1575691 255 255 255 255 0.5 0.5
-1.875 1.875 -1.498125 0.1066853 -0.1066996 0.9885512 255 255 255 255 0.5 0.5
-1.875 1.875 -1.500625 -0.1066947 0.1066996 -0.9885502 255 255 255 255 0.5 0.5
-1.87375 -1.875 -1.499375 0.9875029 0 0.1576007 255 255 255 255 0.5 0.5
-1.87625 -1.875 -1.499375 -0.9875036 0 -0.1575967 255 255 255 255 0.5 0.5
-1.875 -1.87375 -1.499375 -7.949439e-06 1 0 255 255 255 255 0.5 0.5
-1.875 -1.87625 -1.499375 -7.949439e-06 -1 0 255 255 255 255 0.5 0.5
-1.875 -1.875 -1.498125 -0.1576022 0 0.9875027 255 255 255 255 0.5 0.5
-1.875 -1.875 -1.500625 0.1575884 0 -0.9875049 255 255 255 255 0.5 0.5
1.875 -1.875 -1.499375 0.5565216 -0.5565216 -0.6169015 255 255 255 255 0.5 0.5
-1.875 -1.875 -1.499375 -0.7062235 -0.7062235 0.04996701 255 255 255 255 0.5 0.5
-1.875 1.875 -1.499375 -0.5565216 0.5565216 -0.6169015 255 255 255 255 0.5 0.5
1.875 1.875 -1.499375 0.7062235 0.7062235 0.04996701 255 255 255 255 0.5 0.5
0 0 1.500625 0 0 1 255 255 255 255 0.5 0.5
3 0 2 4 
3 0 5 2 
3 0 3 5 
3 0 4 3 
3 1 3 4 
3 1 5 3 
3 1 2 5 
3 1 4 2 
3 6 8 10 
3 6 11 8 
3 6 9 11 
3 6 10 9 
3 7 9 10 
3 7 11 9 
3 7 8 11 
3 7 10 8 
3 2 4 8 
3 4 10 8 
3 4 3 10 
3 3 9 10 
3 3 5 9 
3 5 11 9 
3 5 2 11 
3 2 8 11 
3 12 14 16 
3 12 17 14 
3 12 15 17 
3 12 16 15 
3 13 15 16 
3 13 17 15 
3 13 14 17 
3 13 16 14 
3 6 12 10 
3 10 12 16 
3 10 16 7 
3 7 16 13 
3 7 13 11 
3 11 13 17 
3 11 17 6 
3 6 17 12 
3 18 20 22 
3 18 23 20 
3 18 21 23 
3 18 22 21 
3 19 21 22 
3 19 23 21 
3 19 20 23 
3 19 22 20 
3 14 20 16 
3 16 20 22 
3 16 22 15 
3 15 22 21 
3 15 21 17 
3 17 21 23 
3 17 23 14 
3 14 23 20 
3 24 26 28 
3 24 29 26 
3 24 27 29 
3 24 28 27 
3 25 27 28 
3 25 29 27 
3 25 26 29 
3 25 28 26 
3 18 22 24 
3 22 28 24 
3 22 19 28 
3 19 25 28 
3 19 23 25 
3 23 29 25 
3 23 18 29 
3 18 24 29 
3 32 31 34 
3 31 30 34 
3 30 33 34 
3 33 32 34 
3 30 31 32 
3 30 32 33 
