ply
format ascii 1.0
comment VCGLIB generated
element vertex 97
property float x
property float y
property float z
property float nx
property float ny
property float nz
property uchar red
property uchar green
property uchar blue
property uchar alpha
property float texture_u
property float texture_v
element face 72
property list uchar int vertex_indices
end_header
-4 -1.224647e-16 2 0 -1 -6.123234e-17 200 200 200 255 0.4375 0.6875
-4 1.224647e-16 -2 0 -1 -6.123234e-17 200 200 200 255 0.4375 0.75
4 1.224647e-16 -2 0 -1 -6.123234e-17 200 200 200 255 0.5625 0.75
4 -1.224647e-16 2 0 -1 -6.123234e-17 200 200 200 255 0.5623752 0.6875
-4 12 2 -0.6666667 0.6666667 0.3333333 200 200 200 255 0.3125 0.6875
4 12 2 0.4082483 0.4082483 0.8164966 200 200 200 255 0.4375 0.6875
4 12 -2 0 1 0 200 200 200 255 0.4375 0.75
-4 12 -2 0 1 0 200 200 200 255 0.3125 0.75
-4 12 4 0 -1 0 200 200 200 255 0.25 1
-4 12 -4 0 -1 0 200 200 200 255 0.375 1
4 12 -4 0 -1 0 200 200 200 255 0.375 0.875
4 12 4 0 -1 0 200 200 200 255 0.25 0.875
-4 20 4 0 0.8944272 0.4472136 200 200 200 255 0.125 0.875
4 20 4 0.4082483 0.4082483 0.8164966 200 200 200 255 0.25 0.875
4 20 -4 0 1 0 200 200 200 255 0.25 1
-4 20 -4 0 1 0 200 200 200 255 0.125 1
8 1.224647e-16 -2 0 -1 -6.123234e-17 200 200 200 255 0.6875 0.25
8 -1.224647e-16 2 0 -1 -6.123234e-17 200 200 200 255 0.6875 0.1875
8 12 2 0.4082483 0.4082483 0.8164966 200 200 200 255 0.625 0.1875
8 12 -2 0 1 0 200 200 200 255 0.625 0.25
-8 -1.224647e-16 2 0 -1 -6.123234e-17 200 200 200 255 0.75 0.6875
-8 1.224647e-16 -2 0 -1 -6.123234e-17 200 200 200 255 0.75 0.75
-8 12 2 -0.6666667 0.6666667 0.3333333 200 200 200 255 0.6875 0.6875
-8 12 -2 0 1 0 200 200 200 255 0.6875 0.75
0 -12 2 0 -1 0 200 200 200 255 0.375 0.1875
0 -12 -2 0 -1 0 200 200 200 255 0.375 0.25
4 -12 -2 0 -1 0 200 200 200 255 0.4375 0.25
4 -12 2 0 -1 0 200 200 200 255 0.4375 0.1875
0 -1.224646e-16 2 -0.6666667 0.6666667 0.3333333 200 200 200 255 0.3125 0.1875
4 -1.224646e-16 2 0.4082483 0.4082483 0.8164966 200 200 200 255 0.375 0.1875
4 1.224647e-16 -2 0 1 6.123234e-17 200 200 200 255 0.375 0.25
0 1.224647e-16 -2 0 1 6.123234e-17 200 200 200 255 0.3125 0.25
-4 -12 2 0 -1 0 200 200 200 255 0.125 0.6875
-4 -12 -2 0 -1 0 200 200 200 255 0.125 0.75
-4 -1.224646e-16 2 -0.6666667 0.6666667 0.3333333 200 200 200 255 0.0625 0.6875
-4 1.224647e-16 -2 0 1 6.123234e-17 200 200 200 255 0.0625 0.75
-4 -1.224647e-16 2 -0.4472136 0 0.8944272 200 200 200 255 0.3125 0.5
4 -1.224647e-16 2 0.8944272 0 0.4472136 200 200 200 255 0.4375 0.5
4 1.224647e-16 -2 0.4472136 0 -0.8944272 200 200 200 255 0.5 0.5
4 12 -2 0.8944272 0 -0.4472136 200 200 200 255 0.5 0.6875
-4 1.224647e-16 -2 0 0 -1 200 200 200 255 0.625 0.5
-4 12 -2 0 0 -1 200 200 200 255 0.625 0.6875
-4 1.224647e-16 -2 -1 0 0 200 200 200 255 0.25 0.5
-4 12 -2 -1 0 0 200 200 200 255 0.25 0.6875
-4 12 4 -0.4472136 0 0.8944272 200 200 200 255 0.125 0.75
4 12 4 0.8944272 0 0.4472136 200 200 200 255 0.25 0.75
4 12 -4 0.4472136 0 -0.8944272 200 200 200 255 0.375 0.75
4 20 -4 0.8944272 0 -0.4472136 200 200 200 255 0.375 0.875
-4 12 -4 0 0 -1 200 200 200 255 0.5 0.75
-4 20 -4 0 0 -1 200 200 200 255 0.5 0.875
-4 12 -4 -1 0 0 200 200 200 255 0 0.75
-4 20 4 -1 0 0 200 200 200 255 0.125 0.875
-4 20 -4 -1 0 0 200 200 200 255 0 0.875
4 -1.224647e-16 2 0 -1 -6.123234e-17 200 200 200 255 0.625 0.1875
4 1.224647e-16 -2 0 -1 -6.123234e-17 200 200 200 255 0.625 0.25
4 12 2 -0.6666667 0.6666667 0.3333333 200 200 200 255 0.5625 0.1875
4 12 -2 0 1 0 200 200 200 255 0.5625 0.25
4 -1.224647e-16 2 -0.4472136 0 0.8944272 200 200 200 255 0.5625 0
8 -1.224647e-16 2 0.8944272 0 0.4472136 200 200 200 255 0.625 0
8 1.224647e-16 -2 0.4472136 0 -0.8944272 200 200 200 255 0.6875 0
8 12 -2 0.8944272 0 -0.4472136 200 200 200 255 0.6875 0.1875
4 1.224647e-16 -2 0 0 -1 200 200 200 255 0.75 0
4 12 -2 0 0 -1 200 200 200 255 0.75 0.1875
4 1.224647e-16 -2 -1 0 0 200 200 200 255 0.5 0
4 12 -2 -1 0 0 200 200 200 255 0.5 0.1875
-4 1.224647e-16 -2 0 -1 -6.123234e-17 200 200 200 255 0.8125 0.75
-4 -1.224647e-16 2 0 -1 -6.123234e-17 200 200 200 255 0.8125 0.6875
-4 12 2 0.4082483 0.4082483 0.8164966 200 200 200 255 0.75 0.6875
-4 12 -2 0 1 0 200 200 200 255 0.75 0.75
-8 -1.224647e-16 2 -0.4472136 0 0.8944272 200 200 200 255 0.6875 0.5
-4 -1.224647e-16 2 0.8944272 0 0.4472136 200 200 200 255 0.75 0.5
-4 1.224647e-16 -2 0.4472136 0 -0.8944272 200 200 200 255 0.8125 0.5
-4 12 -2 0.8944272 0 -0.4472136 200 200 200 255 0.8125 0.6875
-8 1.224647e-16 -2 0 0 -1 200 200 200 255 0.875 0.5
-8 12 -2 0 0 -1 200 200 200 255 0.875 0.6875
-8 1.224647e-16 -2 -1 0 0 200 200 200 255 0.625 0.5
-8 12 -2 -1 0 0 200 200 200 255 0.625 0.6875
0 -12 2 -0.4472136 0 0.8944272 200 200 200 255 0.3125 0
4 -12 2 0.8944272 0 0.4472136 200 200 200 255 0.375 0
4 -12 -2 0.4472136 0 -0.8944272 200 200 200 255 0.4375 0
4 1.224647e-16 -2 0.8944272 0 -0.4472136 200 200 200 255 0.4375 0.1875
0 -12 -2 0 0 -1 200 200 200 255 0.5 0
0 1.224647e-16 -2 0 0 -1 200 200 200 255 0.5 0.1875
0 -12 -2 -1 0 0 200 200 200 255 0.25 0
0 1.224647e-16 -2 -1 0 0 200 200 200 255 0.25 0.1875
0 -12 -2 0 -1 0 200 200 200 255 0.1875 0.75
0 -12 2 0 -1 0 200 200 200 255 0.1875 0.6875
0 -1.224646e-16 2 0.4082483 0.4082483 0.8164966 200 200 200 255 0.125 0.6875
0 1.224647e-16 -2 0 1 6.123234e-17 200 200 200 255 0.125 0.75
-4 -12 2 -0.4472136 0 0.8944272 200 200 200 255 0.0625 0.5
0 -12 2 0.8944272 0 0.4472136 200 200 200 255 0.125 0.5
0 -12 -2 0.4472136 0 -0.8944272 200 200 200 255 0.1875 0.5
0 1.224647e-16 -2 0.8944272 0 -0.4472136 200 200 200 255 0.1875 0.6875
-4 -12 -2 0 0 -1 200 200 200 255 0.25 0.5
-4 1.224647e-16 -2 0 0 -1 200 200 200 255 0.25 0.6875
-4 -12 -2 -1 0 0 200 200 200 255 0 0.5
-4 1.224647e-16 -2 -1 0 0 200 200 200 255 0 0.6875
3 0 1 2 
3 0 2 3 
3 4 5 6 
3 4 6 7 
3 36 37 5 
3 36 5 4 
3 37 38 39 
3 37 39 5 
3 38 40 41 
3 38 41 39 
3 42 36 4 
3 42 4 43 
3 8 9 10 
3 8 10 11 
3 12 13 14 
3 12 14 15 
3 44 45 13 
3 44 13 12 
3 45 46 47 
3 45 47 13 
3 46 48 49 
3 46 49 47 
3 50 44 51 
3 50 51 52 
3 53 54 16 
3 53 16 17 
3 55 18 19 
3 55 19 56 
3 57 58 18 
3 57 18 55 
3 58 59 60 
3 58 60 18 
3 59 61 62 
3 59 62 60 
3 63 57 55 
3 63 55 64 
3 20 21 65 
3 20 65 66 
3 22 67 68 
3 22 68 23 
3 69 70 67 
3 69 67 22 
3 70 71 72 
3 70 72 67 
3 71 73 74 
3 71 74 72 
3 75 69 22 
3 75 22 76 
3 24 25 26 
3 24 26 27 
3 28 29 30 
3 28 30 31 
3 77 78 29 
3 77 29 28 
3 78 79 80 
3 78 80 29 
3 79 81 82 
3 79 82 80 
3 83 77 28 
3 83 28 84 
3 32 33 85 
3 32 85 86 
3 34 87 88 
3 34 88 35 
3 89 90 87 
3 89 87 34 
3 90 91 92 
3 90 92 87 
3 91 93 94 
3 91 94 92 
3 95 89 34 
3 95 34 96 
